<svg width="169" height="168" viewBox="0 0 169 168" fill="none" xmlns="http://www.w3.org/2000/svg">
<g filter="url(#filter0_d_148_274)">
<path d="M95.2607 21.0146L96.1855 22.0811L97.5 21.5664L117.176 13.8662L122.016 34.4336L122.34 35.8076L123.743 35.9639L144.743 38.2891L139.471 58.749L139.118 60.1162L140.289 60.9062L157.803 72.7246L143.626 88.3916L142.679 89.4385L143.349 90.6816L153.363 109.286L133.53 116.569L132.205 117.057L132.22 118.468L132.442 139.596L111.496 136.828L110.096 136.644L109.453 137.9L99.8311 156.711L82.5703 144.526L81.417 143.712L80.2637 144.526L63.002 156.711L53.3809 137.9L52.7383 136.644L51.3379 136.828L30.3906 139.596L30.6143 118.468L30.6289 117.057L29.3037 116.569L9.46973 109.286L19.4854 90.6816L20.1553 89.4385L19.208 88.3916L5.03027 72.7246L22.5449 60.9062L23.7158 60.1162L23.3633 58.749L18.0898 38.2891L39.0908 35.9639L40.4941 35.8076L40.8174 34.4336L45.6572 13.8662L65.334 21.5664L66.6484 22.0811L67.5732 21.0146L81.417 5.05176L95.2607 21.0146Z" fill="#F9F159" stroke="#159EFA" stroke-width="4"/>
<path d="M69.201 81.92C67.985 81.92 67.017 81.784 66.297 81.512C65.593 81.24 65.089 80.768 64.785 80.096C64.481 79.424 64.329 78.504 64.329 77.336C64.329 76.2 64.465 75.304 64.737 74.648C65.025 73.992 65.489 73.52 66.129 73.232C66.769 72.944 67.633 72.784 68.721 72.752V65.504H65.361C64.625 65.504 64.089 65.664 63.753 65.984C63.417 66.304 63.249 66.84 63.249 67.592V69.008C63.249 70.624 63.209 72.136 63.129 73.544C63.049 74.936 62.881 76.248 62.625 77.48C62.385 78.712 61.993 79.896 61.449 81.032C61.241 81.48 60.905 81.784 60.441 81.944C59.977 82.104 59.513 82.088 59.049 81.896C58.569 81.704 58.265 81.384 58.137 80.936C58.025 80.488 58.073 80.064 58.281 79.664C58.761 78.704 59.121 77.704 59.361 76.664C59.601 75.624 59.761 74.48 59.841 73.232C59.921 71.968 59.961 70.536 59.961 68.936V67.568C59.961 65.76 60.369 64.472 61.185 63.704C62.001 62.92 63.337 62.528 65.193 62.528H68.361V61.304C68.361 60.744 68.545 60.312 68.913 60.008C69.297 59.688 69.745 59.528 70.257 59.528C70.769 59.528 71.209 59.688 71.577 60.008C71.961 60.312 72.153 60.744 72.153 61.304V62.528H79.089C79.553 62.528 79.921 62.672 80.193 62.96C80.465 63.248 80.601 63.6 80.601 64.016C80.601 64.432 80.465 64.784 80.193 65.072C79.921 65.36 79.553 65.504 79.089 65.504H72.345V67.64H78.177C78.641 67.64 79.001 67.784 79.257 68.072C79.513 68.344 79.641 68.688 79.641 69.104C79.641 69.504 79.513 69.856 79.257 70.16C79.001 70.448 78.641 70.592 78.177 70.592H72.345V72.752H73.401C74.617 72.752 75.577 72.888 76.281 73.16C77.001 73.432 77.513 73.904 77.817 74.576C78.121 75.232 78.273 76.152 78.273 77.336C78.273 78.504 78.121 79.424 77.817 80.096C77.513 80.768 77.001 81.24 76.281 81.512C75.577 81.784 74.617 81.92 73.401 81.92H69.201ZM69.561 78.968H73.041C73.777 78.968 74.257 78.872 74.481 78.68C74.705 78.472 74.817 78.024 74.817 77.336C74.817 76.648 74.705 76.208 74.481 76.016C74.257 75.808 73.777 75.704 73.041 75.704H69.561C68.825 75.704 68.345 75.808 68.121 76.016C67.897 76.208 67.785 76.648 67.785 77.336C67.785 78.024 67.897 78.472 68.121 78.68C68.345 78.872 68.825 78.968 69.561 78.968ZM83.673 81.464C83.257 81.464 82.897 81.312 82.593 81.008C82.289 80.704 82.137 80.344 82.137 79.928C82.137 79.512 82.289 79.16 82.593 78.872C82.897 78.568 83.257 78.416 83.673 78.416H91.545V74.408H86.433C85.985 74.408 85.601 74.256 85.281 73.952C84.977 73.632 84.825 73.248 84.825 72.8C84.825 72.352 84.977 71.976 85.281 71.672C85.601 71.352 85.985 71.192 86.433 71.192H91.545V67.904H84.465C84.049 67.904 83.689 67.76 83.385 67.472C83.081 67.168 82.929 66.808 82.929 66.392C82.929 65.96 83.081 65.6 83.385 65.312C83.689 65.008 84.049 64.856 84.465 64.856H92.577C92.545 64.824 92.529 64.8 92.529 64.784C92.353 64.624 92.121 64.416 91.833 64.16C91.545 63.904 91.257 63.656 90.969 63.416C90.681 63.16 90.449 62.96 90.273 62.816C89.921 62.512 89.737 62.104 89.721 61.592C89.705 61.064 89.865 60.624 90.201 60.272C90.569 59.904 90.985 59.696 91.449 59.648C91.929 59.6 92.377 59.744 92.793 60.08C92.985 60.224 93.233 60.432 93.537 60.704C93.841 60.976 94.145 61.248 94.449 61.52C94.769 61.776 95.017 61.992 95.193 62.168C95.609 62.536 95.825 62.984 95.841 63.512C95.873 64.024 95.689 64.464 95.289 64.832L95.265 64.856H102.393C102.825 64.856 103.185 65.008 103.473 65.312C103.777 65.6 103.929 65.96 103.929 66.392C103.929 66.808 103.777 67.168 103.473 67.472C103.185 67.76 102.825 67.904 102.393 67.904H95.337V71.192H100.281C100.729 71.192 101.105 71.352 101.409 71.672C101.729 71.976 101.889 72.352 101.889 72.8C101.889 73.248 101.729 73.632 101.409 73.952C101.105 74.256 100.729 74.408 100.281 74.408H95.337V78.416H103.161C103.577 78.416 103.929 78.568 104.217 78.872C104.521 79.16 104.673 79.512 104.673 79.928C104.673 80.344 104.521 80.704 104.217 81.008C103.929 81.312 103.577 81.464 103.161 81.464H83.673ZM46.617 106.416C46.121 106.416 45.689 106.232 45.321 105.864C44.953 105.512 44.769 105.08 44.769 104.568V95.712C43.841 96.528 42.881 97.312 41.889 98.064C40.897 98.8 39.905 99.496 38.913 100.152C38.481 100.424 38.017 100.496 37.521 100.368C37.025 100.24 36.641 99.96 36.369 99.528C36.113 99.08 36.041 98.616 36.153 98.136C36.281 97.64 36.561 97.256 36.993 96.984C37.681 96.552 38.441 96.016 39.273 95.376C40.121 94.736 40.985 94.048 41.865 93.312C42.745 92.56 43.601 91.792 44.433 91.008C45.281 90.208 46.041 89.44 46.713 88.704C47.401 87.968 47.953 87.296 48.369 86.688C48.673 86.272 49.073 86.016 49.569 85.92C50.081 85.824 50.545 85.92 50.961 86.208C51.377 86.496 51.633 86.896 51.729 87.408C51.841 87.904 51.745 88.36 51.441 88.776C51.009 89.336 50.545 89.904 50.049 90.48C49.569 91.056 49.049 91.632 48.489 92.208V104.568C48.489 105.08 48.305 105.512 47.937 105.864C47.569 106.232 47.129 106.416 46.617 106.416ZM66.153 105.768C65.737 106.072 65.273 106.184 64.761 106.104C64.265 106.04 63.865 105.8 63.561 105.384C63.257 104.968 63.137 104.512 63.201 104.016C63.281 103.504 63.529 103.096 63.945 102.792C64.921 102.072 65.745 101.216 66.417 100.224C67.089 99.216 67.601 98.112 67.953 96.912H60.177C59.681 96.912 59.257 96.736 58.905 96.384C58.553 96.032 58.377 95.608 58.377 95.112C58.377 94.616 58.553 94.192 58.905 93.84C59.257 93.488 59.681 93.312 60.177 93.312H68.457C68.457 92.64 68.409 91.96 68.313 91.272C67.417 91.4 66.529 91.52 65.649 91.632C64.769 91.728 63.945 91.8 63.177 91.848C62.681 91.864 62.241 91.704 61.857 91.368C61.489 91.016 61.297 90.592 61.281 90.096C61.265 89.584 61.433 89.152 61.785 88.8C62.137 88.432 62.569 88.24 63.081 88.224C63.849 88.176 64.681 88.104 65.577 88.008C66.473 87.896 67.385 87.76 68.313 87.6C69.257 87.44 70.161 87.264 71.025 87.072C71.889 86.88 72.665 86.68 73.353 86.472C73.833 86.328 74.305 86.352 74.769 86.544C75.233 86.72 75.553 87.048 75.729 87.528C75.905 88.008 75.889 88.48 75.681 88.944C75.473 89.408 75.121 89.72 74.625 89.88C74.257 89.992 73.833 90.112 73.353 90.24C72.889 90.352 72.401 90.472 71.889 90.6C71.953 91.048 71.993 91.496 72.009 91.944C72.041 92.392 72.057 92.848 72.057 93.312H78.609C79.105 93.312 79.529 93.488 79.881 93.84C80.233 94.192 80.409 94.616 80.409 95.112C80.409 95.608 80.233 96.032 79.881 96.384C79.529 96.736 79.105 96.912 78.609 96.912H71.625C71.225 98.72 70.553 100.408 69.609 101.976C68.681 103.528 67.529 104.792 66.153 105.768ZM92.841 106.056C92.345 106.056 91.913 105.872 91.545 105.504C91.177 105.152 90.993 104.72 90.993 104.208C90.993 103.696 91.177 103.264 91.545 102.912C91.913 102.544 92.345 102.36 92.841 102.36C93.593 102.36 94.097 102.264 94.353 102.072C94.625 101.864 94.745 101.464 94.713 100.872L94.545 97.08C93.665 97.992 92.729 98.896 91.737 99.792C90.745 100.672 89.745 101.504 88.737 102.288C87.745 103.056 86.777 103.736 85.833 104.328C85.401 104.6 84.937 104.672 84.441 104.544C83.945 104.416 83.561 104.128 83.289 103.68C83.033 103.232 82.969 102.768 83.097 102.288C83.241 101.792 83.529 101.408 83.961 101.136C84.745 100.64 85.609 100.024 86.553 99.288C87.513 98.552 88.497 97.752 89.505 96.888C90.513 96.024 91.473 95.152 92.385 94.272H85.497C85.001 94.272 84.577 94.096 84.225 93.744C83.889 93.392 83.721 92.968 83.721 92.472C83.721 91.96 83.889 91.536 84.225 91.2C84.577 90.848 85.001 90.672 85.497 90.672H94.257C94.241 90.048 94.225 89.504 94.209 89.04C94.193 88.56 94.177 88.208 94.161 87.984C94.145 87.472 94.305 87.032 94.641 86.664C94.993 86.296 95.425 86.104 95.937 86.088C96.449 86.072 96.881 86.248 97.233 86.616C97.585 86.968 97.769 87.4 97.785 87.912C97.801 88.136 97.817 88.488 97.833 88.968C97.849 89.448 97.873 90.016 97.905 90.672H101.337C101.833 90.672 102.257 90.848 102.609 91.2C102.961 91.536 103.137 91.96 103.137 92.472C103.137 92.968 102.961 93.392 102.609 93.744C102.257 94.096 101.833 94.272 101.337 94.272H98.049C98.097 95.504 98.145 96.712 98.193 97.896C98.257 99.064 98.305 100 98.337 100.704C98.433 102.592 98.057 103.96 97.209 104.808C96.377 105.64 94.921 106.056 92.841 106.056ZM111.537 105.216C111.057 105.376 110.585 105.336 110.121 105.096C109.673 104.856 109.369 104.496 109.209 104.016C109.065 103.52 109.105 103.048 109.329 102.6C109.569 102.152 109.937 101.848 110.433 101.688C111.633 101.304 112.865 100.776 114.129 100.104C115.409 99.416 116.649 98.632 117.849 97.752C119.049 96.872 120.145 95.944 121.137 94.968C122.129 93.992 122.953 93.024 123.609 92.064C123.897 91.648 124.289 91.392 124.785 91.296C125.297 91.2 125.761 91.288 126.177 91.56C126.593 91.848 126.849 92.248 126.945 92.76C127.057 93.256 126.969 93.72 126.681 94.152C125.929 95.256 124.977 96.368 123.825 97.488C122.673 98.608 121.409 99.68 120.033 100.704C118.657 101.712 117.241 102.608 115.785 103.392C114.329 104.176 112.913 104.784 111.537 105.216ZM112.089 97.392C111.865 97.216 111.553 97.008 111.153 96.768C110.753 96.512 110.329 96.264 109.881 96.024C109.449 95.768 109.057 95.552 108.705 95.376C108.241 95.152 107.929 94.8 107.769 94.32C107.609 93.824 107.649 93.352 107.889 92.904C108.113 92.44 108.465 92.128 108.945 91.968C109.441 91.808 109.913 91.84 110.361 92.064C110.729 92.24 111.177 92.48 111.705 92.784C112.249 93.088 112.777 93.4 113.289 93.72C113.801 94.024 114.193 94.296 114.465 94.536C114.865 94.872 115.089 95.296 115.137 95.808C115.185 96.304 115.041 96.752 114.705 97.152C114.385 97.552 113.969 97.768 113.457 97.8C112.961 97.832 112.505 97.696 112.089 97.392ZM114.609 92.736C114.401 92.544 114.097 92.312 113.697 92.04C113.313 91.768 112.905 91.496 112.473 91.224C112.057 90.952 111.681 90.72 111.345 90.528C110.897 90.272 110.609 89.896 110.481 89.4C110.353 88.904 110.417 88.44 110.673 88.008C110.929 87.56 111.297 87.272 111.777 87.144C112.273 87.016 112.745 87.08 113.193 87.336C113.561 87.528 114.001 87.792 114.513 88.128C115.025 88.448 115.521 88.784 116.001 89.136C116.497 89.472 116.881 89.768 117.153 90.024C117.521 90.376 117.713 90.808 117.729 91.32C117.761 91.832 117.593 92.272 117.225 92.64C116.873 93.008 116.449 93.2 115.953 93.216C115.457 93.216 115.009 93.056 114.609 92.736Z" fill="#159EFA"/>
</g>
<defs>
<filter id="filter0_d_148_274" x="-0.583008" y="0" width="170" height="170" filterUnits="userSpaceOnUse" color-interpolation-filters="sRGB">
<feFlood flood-opacity="0" result="BackgroundImageFix"/>
<feColorMatrix in="SourceAlpha" type="matrix" values="0 0 0 0 0 0 0 0 0 0 0 0 0 0 0 0 0 0 127 0" result="hardAlpha"/>
<feOffset dx="3" dy="3"/>
<feGaussianBlur stdDeviation="2.5"/>
<feComposite in2="hardAlpha" operator="out"/>
<feColorMatrix type="matrix" values="0 0 0 0 0.471154 0 0 0 0 0.466624 0 0 0 0 0.466624 0 0 0 1 0"/>
<feBlend mode="normal" in2="BackgroundImageFix" result="effect1_dropShadow_148_274"/>
<feBlend mode="normal" in="SourceGraphic" in2="effect1_dropShadow_148_274" result="shape"/>
</filter>
</defs>
</svg>
