<svg width="169" height="168" viewBox="0 0 169 168" fill="none" xmlns="http://www.w3.org/2000/svg">
<g filter="url(#filter0_d_148_279)">
<path d="M95.2607 21.0146L96.1855 22.0811L97.5 21.5664L117.176 13.8662L122.016 34.4336L122.34 35.8076L123.743 35.9639L144.743 38.2891L139.471 58.749L139.118 60.1162L140.289 60.9062L157.803 72.7246L143.626 88.3916L142.679 89.4385L143.349 90.6816L153.363 109.286L133.53 116.569L132.205 117.057L132.22 118.468L132.442 139.596L111.496 136.828L110.096 136.644L109.453 137.9L99.8311 156.711L82.5703 144.526L81.417 143.712L80.2637 144.526L63.002 156.711L53.3809 137.9L52.7383 136.644L51.3379 136.828L30.3906 139.596L30.6143 118.468L30.6289 117.057L29.3037 116.569L9.46973 109.286L19.4854 90.6816L20.1553 89.4385L19.208 88.3916L5.03027 72.7246L22.5449 60.9062L23.7158 60.1162L23.3633 58.749L18.0898 38.2891L39.0908 35.9639L40.4941 35.8076L40.8174 34.4336L45.6572 13.8662L65.334 21.5664L66.6484 22.0811L67.5732 21.0146L81.417 5.05176L95.2607 21.0146Z" fill="#FAE023" stroke="#FA7115" stroke-width="4"/>
<path d="M61.621 81.728C60.949 81.856 60.389 81.8 59.941 81.56C59.509 81.336 59.229 80.928 59.101 80.336C58.989 79.776 59.101 79.304 59.437 78.92C59.789 78.52 60.261 78.28 60.853 78.2C62.133 78.024 63.285 77.728 64.309 77.312C65.349 76.896 66.277 76.376 67.093 75.752C66.885 75.64 66.669 75.536 66.445 75.44C66.237 75.328 66.021 75.232 65.797 75.152C64.629 74.64 63.789 74.12 63.277 73.592C62.765 73.048 62.517 72.424 62.533 71.72C62.549 71.016 62.765 70.184 63.181 69.224C63.245 69.096 63.301 68.976 63.349 68.864C63.397 68.736 63.453 68.608 63.517 68.48H59.221C58.773 68.48 58.397 68.328 58.093 68.024C57.789 67.704 57.637 67.328 57.637 66.896C57.637 66.448 57.789 66.072 58.093 65.768C58.397 65.448 58.773 65.288 59.221 65.288H64.789C65.093 64.472 65.373 63.696 65.629 62.96C65.901 62.208 66.125 61.544 66.301 60.968C66.477 60.456 66.789 60.088 67.237 59.864C67.701 59.624 68.197 59.6 68.725 59.792C69.237 59.968 69.589 60.264 69.781 60.68C69.973 61.08 69.981 61.52 69.805 62C69.645 62.48 69.453 63 69.229 63.56C69.021 64.12 68.805 64.696 68.581 65.288H78.541C78.989 65.288 79.365 65.448 79.669 65.768C79.973 66.072 80.125 66.448 80.125 66.896C80.125 67.328 79.973 67.704 79.669 68.024C79.365 68.328 78.989 68.48 78.541 68.48H75.349C75.077 69.664 74.717 70.8 74.269 71.888C73.837 72.976 73.301 73.992 72.661 74.936C73.509 75.432 74.333 75.944 75.133 76.472C75.949 77 76.701 77.536 77.389 78.08C77.805 78.4 78.045 78.816 78.109 79.328C78.173 79.84 78.037 80.304 77.701 80.72C77.365 81.12 76.909 81.344 76.333 81.392C75.773 81.456 75.285 81.312 74.869 80.96C74.181 80.4 73.453 79.84 72.685 79.28C71.917 78.704 71.133 78.16 70.333 77.648C69.261 78.624 68.005 79.456 66.565 80.144C65.141 80.832 63.493 81.36 61.621 81.728ZM69.517 73.28C70.029 72.576 70.461 71.824 70.813 71.024C71.165 70.208 71.445 69.36 71.653 68.48H67.261C67.149 68.784 67.029 69.072 66.901 69.344C66.773 69.616 66.653 69.872 66.541 70.112C66.237 70.736 66.133 71.2 66.229 71.504C66.341 71.792 66.701 72.056 67.309 72.296C67.645 72.424 67.997 72.576 68.365 72.752C68.733 72.912 69.117 73.088 69.517 73.28ZM86.653 82.184C86.189 82.184 85.789 82.032 85.453 81.728C85.117 81.424 84.949 81.008 84.949 80.48V61.328C84.949 60.816 85.117 60.408 85.453 60.104C85.789 59.784 86.189 59.624 86.653 59.624C87.133 59.624 87.541 59.784 87.877 60.104C88.213 60.408 88.381 60.816 88.381 61.328V63.2C88.893 63.088 89.317 63.24 89.653 63.656C89.733 63.752 89.869 63.928 90.061 64.184C90.253 64.44 90.429 64.664 90.589 64.856C90.717 64.44 90.829 64.04 90.925 63.656C91.021 63.272 91.101 62.912 91.165 62.576C91.261 62.048 91.501 61.672 91.885 61.448C92.285 61.224 92.733 61.176 93.229 61.304C93.677 61.416 94.005 61.632 94.213 61.952C94.437 62.272 94.501 62.688 94.405 63.2C94.357 63.44 94.301 63.696 94.237 63.968C94.189 64.24 94.133 64.512 94.069 64.784H94.957V61.472C94.957 60.944 95.125 60.528 95.461 60.224C95.797 59.904 96.205 59.744 96.685 59.744C97.165 59.744 97.573 59.904 97.909 60.224C98.245 60.528 98.413 60.944 98.413 61.472V64.784H102.301C102.717 64.784 103.077 64.936 103.381 65.24C103.685 65.544 103.837 65.912 103.837 66.344C103.837 66.76 103.685 67.12 103.381 67.424C103.077 67.728 102.717 67.88 102.301 67.88H98.413V71H101.317C101.765 71 102.141 71.16 102.445 71.48C102.749 71.784 102.901 72.152 102.901 72.584C102.901 73.016 102.749 73.392 102.445 73.712C102.141 74.016 101.765 74.168 101.317 74.168H98.413V78.08H102.589C103.021 78.08 103.389 78.232 103.693 78.536C104.013 78.84 104.173 79.208 104.173 79.64C104.173 80.088 104.013 80.464 103.693 80.768C103.389 81.072 103.021 81.224 102.589 81.224H90.829C90.397 81.224 90.021 81.072 89.701 80.768C89.397 80.464 89.245 80.088 89.245 79.64C89.245 79.208 89.397 78.84 89.701 78.536C90.021 78.232 90.397 78.08 90.829 78.08H94.957V74.168H91.981C91.533 74.168 91.157 74.016 90.853 73.712C90.549 73.392 90.397 73.016 90.397 72.584C90.397 72.152 90.549 71.784 90.853 71.48C91.157 71.16 91.533 71 91.981 71H94.957V67.88H93.157C92.901 68.584 92.661 69.176 92.437 69.656C92.229 70.104 91.893 70.424 91.429 70.616C90.981 70.792 90.509 70.76 90.013 70.52C89.613 70.328 89.349 70.024 89.221 69.608C89.109 69.192 89.141 68.784 89.317 68.384C89.381 68.256 89.437 68.128 89.485 68C89.549 67.856 89.613 67.704 89.677 67.544C89.181 67.544 88.797 67.336 88.525 66.92L88.381 66.728V80.48C88.381 81.008 88.213 81.424 87.877 81.728C87.541 82.032 87.133 82.184 86.653 82.184ZM82.357 71.552C81.909 71.456 81.589 71.248 81.397 70.928C81.221 70.608 81.173 70.24 81.253 69.824C81.317 69.488 81.397 69.072 81.493 68.576C81.589 68.08 81.677 67.576 81.757 67.064C81.853 66.552 81.917 66.136 81.949 65.816C81.997 65.368 82.181 65.024 82.501 64.784C82.837 64.528 83.237 64.44 83.701 64.52C84.117 64.584 84.429 64.76 84.637 65.048C84.861 65.336 84.941 65.712 84.877 66.176C84.845 66.592 84.789 67.072 84.709 67.616C84.629 68.16 84.541 68.688 84.445 69.2C84.365 69.712 84.285 70.136 84.205 70.472C84.125 70.872 83.901 71.176 83.533 71.384C83.165 71.592 82.773 71.648 82.357 71.552ZM38.2945 106.248C37.8305 106.52 37.3265 106.632 36.7825 106.584C36.2545 106.552 35.8305 106.296 35.5105 105.816C35.2065 105.4 35.1105 104.952 35.2225 104.472C35.3345 103.976 35.6145 103.592 36.0625 103.32C37.5505 102.408 38.8865 101.352 40.0705 100.152C41.2705 98.936 42.2145 97.576 42.9025 96.072C43.6065 94.568 43.9585 92.936 43.9585 91.176V86.88C43.9585 86.32 44.1345 85.872 44.4865 85.536C44.8545 85.2 45.2865 85.032 45.7825 85.032C46.2945 85.032 46.7265 85.2 47.0785 85.536C47.4305 85.872 47.6065 86.32 47.6065 86.88V90.168C47.6065 92.184 47.9825 94 48.7345 95.616C49.4865 97.232 50.4945 98.656 51.7585 99.888C53.0225 101.12 54.4065 102.176 55.9105 103.056C56.3745 103.312 56.6465 103.696 56.7265 104.208C56.8225 104.72 56.7345 105.2 56.4625 105.648C56.1745 106.112 55.7425 106.392 55.1665 106.488C54.6065 106.584 54.0865 106.48 53.6065 106.176C51.9585 105.168 50.4625 103.888 49.1185 102.336C47.7905 100.784 46.7425 99.112 45.9745 97.32C45.4945 98.456 44.8625 99.584 44.0785 100.704C43.2945 101.824 42.4065 102.864 41.4145 103.824C40.4385 104.768 39.3985 105.576 38.2945 106.248ZM62.4865 106.632C61.1745 107.128 60.2865 106.896 59.8225 105.936C59.5825 105.44 59.5665 104.976 59.7745 104.544C59.9825 104.112 60.3585 103.792 60.9025 103.584C61.5585 103.344 62.1985 103.056 62.8225 102.72C63.4625 102.384 64.0705 102.016 64.6465 101.616C64.2945 101.344 63.9425 101.088 63.5905 100.848C63.2545 100.608 62.9265 100.392 62.6065 100.2C62.2065 99.96 61.9585 99.616 61.8625 99.168C61.7825 98.72 61.8465 98.344 62.0545 98.04C62.3265 97.64 62.6785 97.384 63.1105 97.272C63.5425 97.16 63.9585 97.224 64.3585 97.464C64.8065 97.72 65.2785 98.016 65.7745 98.352C66.2865 98.688 66.7985 99.04 67.3105 99.408C67.9985 98.752 68.6145 98.048 69.1585 97.296C69.3185 97.072 69.5185 96.888 69.7585 96.744H61.5745C61.1745 96.744 60.8305 96.608 60.5425 96.336C60.2705 96.048 60.1345 95.712 60.1345 95.328C60.1345 94.928 60.2705 94.592 60.5425 94.32C60.8305 94.048 61.1745 93.912 61.5745 93.912H72.7105C73.9105 93.912 74.8385 94.04 75.4945 94.296C76.1665 94.552 76.6305 94.984 76.8865 95.592C77.1425 96.184 77.2465 97 77.1985 98.04C77.1665 98.856 77.1985 99.68 77.2945 100.512C77.3905 101.344 77.5345 102.04 77.7265 102.6C77.7905 102.792 77.8865 102.904 78.0145 102.936C78.1585 102.952 78.2945 102.832 78.4225 102.576C78.4705 102.464 78.5185 102.36 78.5665 102.264C78.6145 102.152 78.6545 102.056 78.6865 101.976C78.8785 101.56 79.1825 101.288 79.5985 101.16C80.0305 101.032 80.4465 101.064 80.8465 101.256C81.3105 101.464 81.5905 101.768 81.6865 102.168C81.7825 102.568 81.7345 102.976 81.5425 103.392C81.3825 103.744 81.1745 104.152 80.9185 104.616C80.6625 105.064 80.4145 105.448 80.1745 105.768C79.6785 106.456 79.1345 106.896 78.5425 107.088C77.9505 107.28 77.3745 107.24 76.8145 106.968C76.2545 106.696 75.7665 106.208 75.3505 105.504C75.0305 104.912 74.7585 104.208 74.5345 103.392C74.3265 102.576 74.1665 101.704 74.0545 100.776C73.9585 99.832 73.9105 98.904 73.9105 97.992C73.9105 97.512 73.8145 97.184 73.6225 97.008C73.4305 96.832 73.0945 96.744 72.6145 96.744H71.5345C71.5505 96.76 71.5665 96.768 71.5825 96.768C71.5985 96.768 71.6145 96.776 71.6305 96.792C72.0305 97.064 72.2545 97.44 72.3025 97.92C72.3665 98.384 72.2385 98.824 71.9185 99.24C71.6625 99.592 71.3585 99.96 71.0065 100.344C70.6705 100.728 70.3185 101.104 69.9505 101.472C70.3505 101.808 70.7265 102.144 71.0785 102.48C71.4465 102.8 71.7665 103.112 72.0385 103.416C72.4065 103.768 72.5745 104.192 72.5425 104.688C72.5265 105.184 72.3185 105.608 71.9185 105.96C71.5505 106.296 71.1185 106.44 70.6225 106.392C70.1265 106.344 69.7025 106.144 69.3505 105.792C68.7745 105.168 68.0865 104.504 67.2865 103.8C66.5025 104.392 65.7025 104.928 64.8865 105.408C64.0705 105.904 63.2705 106.312 62.4865 106.632ZM59.2465 93.096C58.8785 92.808 58.6705 92.432 58.6225 91.968C58.5745 91.504 58.6945 91.096 58.9825 90.744C59.3825 90.28 59.7905 89.72 60.2065 89.064C60.6385 88.408 61.0385 87.752 61.4065 87.096C61.7905 86.424 62.1105 85.832 62.3665 85.32C62.5905 84.84 62.9185 84.528 63.3505 84.384C63.7985 84.224 64.2465 84.24 64.6945 84.432C65.1105 84.608 65.3985 84.896 65.5585 85.296C65.7185 85.68 65.6865 86.104 65.4625 86.568L65.4145 86.688H78.2785C78.6465 86.688 78.9585 86.816 79.2145 87.072C79.4865 87.328 79.6225 87.64 79.6225 88.008C79.6225 88.376 79.4865 88.696 79.2145 88.968C78.9585 89.224 78.6465 89.352 78.2785 89.352H63.9745C63.6225 89.992 63.2545 90.6 62.8705 91.176C62.5025 91.752 62.1665 92.224 61.8625 92.592C61.5265 93.008 61.1185 93.288 60.6385 93.432C60.1745 93.56 59.7105 93.448 59.2465 93.096ZM65.4865 92.928C65.1025 92.928 64.7745 92.792 64.5025 92.52C64.2465 92.248 64.1185 91.928 64.1185 91.56C64.1185 91.192 64.2465 90.88 64.5025 90.624C64.7745 90.352 65.1025 90.216 65.4865 90.216H75.9265C76.2945 90.216 76.6145 90.352 76.8865 90.624C77.1585 90.88 77.2945 91.192 77.2945 91.56C77.2945 91.928 77.1585 92.248 76.8865 92.52C76.6145 92.792 76.2945 92.928 75.9265 92.928H65.4865ZM85.0225 105C83.9825 105 83.4625 104.472 83.4625 103.416V89.784C83.4625 88.728 83.9825 88.2 85.0225 88.2H85.3585C86.1585 88.2 86.7905 88.544 87.2545 89.232L94.0945 99.552V89.784C94.0945 88.728 94.6225 88.2 95.6785 88.2C96.7185 88.2 97.2385 88.728 97.2385 89.784V103.416C97.2385 104.472 96.7425 105 95.7505 105H95.4865C94.6545 105 94.0225 104.656 93.5905 103.968L86.5825 93.264V103.416C86.5825 104.472 86.0625 105 85.0225 105ZM105.255 105.264C104.183 105.264 103.215 105.016 102.351 104.52C101.503 104.024 100.831 103.32 100.335 102.408C99.8552 101.496 99.6152 100.432 99.6152 99.216C99.6152 97.984 99.8552 96.92 100.335 96.024C100.831 95.112 101.503 94.408 102.351 93.912C103.215 93.4 104.183 93.144 105.255 93.144C106.343 93.144 107.311 93.4 108.159 93.912C109.007 94.408 109.671 95.112 110.151 96.024C110.647 96.92 110.895 97.984 110.895 99.216C110.895 100.432 110.647 101.496 110.151 102.408C109.671 103.32 109.007 104.024 108.159 104.52C107.311 105.016 106.343 105.264 105.255 105.264ZM105.255 102.528C106.023 102.528 106.647 102.248 107.127 101.688C107.623 101.112 107.871 100.288 107.871 99.216C107.871 98.128 107.623 97.304 107.127 96.744C106.647 96.168 106.023 95.88 105.255 95.88C104.487 95.88 103.863 96.168 103.383 96.744C102.919 97.304 102.687 98.128 102.687 99.216C102.687 100.288 102.919 101.112 103.383 101.688C103.863 102.248 104.487 102.528 105.255 102.528ZM114.858 105.264C114.314 105.264 113.85 105.08 113.466 104.712C113.098 104.328 112.914 103.872 112.914 103.344C112.914 102.8 113.098 102.344 113.466 101.976C113.85 101.592 114.314 101.4 114.858 101.4C115.386 101.4 115.842 101.592 116.226 101.976C116.61 102.344 116.802 102.8 116.802 103.344C116.802 103.872 116.61 104.328 116.226 104.712C115.842 105.08 115.386 105.264 114.858 105.264ZM123.755 105C122.795 105 122.315 104.472 122.315 103.416V91.848L120.851 92.832C119.955 93.424 119.259 93.312 118.763 92.496C118.507 92.096 118.427 91.72 118.523 91.368C118.635 91 118.907 90.688 119.339 90.432L122.075 88.728C122.395 88.52 122.707 88.376 123.011 88.296C123.315 88.216 123.659 88.176 124.043 88.176C124.795 88.176 125.171 88.704 125.171 89.76V103.416C125.171 104.472 124.699 105 123.755 105Z" fill="#DC281C"/>
</g>
<defs>
<filter id="filter0_d_148_279" x="-0.583008" y="0" width="170" height="170" filterUnits="userSpaceOnUse" color-interpolation-filters="sRGB">
<feFlood flood-opacity="0" result="BackgroundImageFix"/>
<feColorMatrix in="SourceAlpha" type="matrix" values="0 0 0 0 0 0 0 0 0 0 0 0 0 0 0 0 0 0 127 0" result="hardAlpha"/>
<feOffset dx="3" dy="3"/>
<feGaussianBlur stdDeviation="2.5"/>
<feComposite in2="hardAlpha" operator="out"/>
<feColorMatrix type="matrix" values="0 0 0 0 0.471154 0 0 0 0 0.466624 0 0 0 0 0.466624 0 0 0 1 0"/>
<feBlend mode="normal" in2="BackgroundImageFix" result="effect1_dropShadow_148_279"/>
<feBlend mode="normal" in="SourceGraphic" in2="effect1_dropShadow_148_279" result="shape"/>
</filter>
</defs>
</svg>
