<svg width="169" height="168" viewBox="0 0 169 168" fill="none" xmlns="http://www.w3.org/2000/svg">
<g filter="url(#filter0_d_148_269)">
<path d="M95.2607 21.0146L96.1855 22.0811L97.5 21.5664L117.176 13.8662L122.016 34.4336L122.34 35.8076L123.743 35.9639L144.743 38.2891L139.471 58.749L139.118 60.1162L140.289 60.9062L157.803 72.7246L143.626 88.3916L142.679 89.4385L143.349 90.6816L153.363 109.286L133.53 116.569L132.205 117.057L132.22 118.468L132.442 139.596L111.496 136.828L110.096 136.644L109.453 137.9L99.8311 156.711L82.5703 144.526L81.417 143.712L80.2637 144.526L63.002 156.711L53.3809 137.9L52.7383 136.644L51.3379 136.828L30.3906 139.596L30.6143 118.468L30.6289 117.057L29.3037 116.569L9.46973 109.286L19.4854 90.6816L20.1553 89.4385L19.208 88.3916L5.03027 72.7246L22.5449 60.9062L23.7158 60.1162L23.3633 58.749L18.0898 38.2891L39.0908 35.9639L40.4941 35.8076L40.8174 34.4336L45.6572 13.8662L65.334 21.5664L66.6484 22.0811L67.5732 21.0146L81.417 5.05176L95.2607 21.0146Z" fill="#FAE023" stroke="#DC281C" stroke-width="4"/>
<path d="M66.565 82.208C65.973 82.208 65.509 82.064 65.173 81.776C64.853 81.488 64.677 81.096 64.645 80.6C64.613 80.12 64.757 79.72 65.077 79.4C65.397 79.08 65.821 78.912 66.349 78.896C67.101 78.864 67.621 78.704 67.909 78.416C68.213 78.112 68.365 77.544 68.365 76.712C68.365 76.648 68.365 76.584 68.365 76.52C68.365 76.456 68.357 76.392 68.341 76.328H59.389C58.941 76.328 58.581 76.184 58.309 75.896C58.037 75.608 57.901 75.256 57.901 74.84C57.901 74.424 58.029 74.072 58.285 73.784C58.541 73.496 58.861 73.352 59.245 73.352H66.829C66.701 73.064 66.685 72.76 66.781 72.44C66.893 72.12 67.077 71.856 67.333 71.648C67.653 71.376 68.037 71.256 68.485 71.288C68.949 71.304 69.309 71.424 69.565 71.648V71.672C69.645 71.624 69.709 71.584 69.757 71.552C69.805 71.52 69.837 71.496 69.853 71.48C70.077 71.304 70.157 71.136 70.093 70.976C70.045 70.816 69.885 70.736 69.613 70.736H63.829C63.381 70.736 63.029 70.6 62.773 70.328C62.517 70.04 62.389 69.704 62.389 69.32C62.389 68.92 62.517 68.584 62.773 68.312C63.029 68.024 63.381 67.88 63.829 67.88H72.037C72.725 67.88 73.293 68.032 73.741 68.336C74.189 68.624 74.485 69.008 74.629 69.488C74.789 69.952 74.773 70.44 74.581 70.952C74.389 71.464 74.005 71.936 73.429 72.368C73.189 72.544 72.949 72.712 72.709 72.872C72.485 73.032 72.261 73.192 72.037 73.352H78.229C78.773 73.352 79.181 73.496 79.453 73.784C79.741 74.072 79.885 74.424 79.885 74.84C79.885 75.256 79.749 75.608 79.477 75.896C79.221 76.184 78.861 76.328 78.397 76.328H71.869C71.869 76.424 71.869 76.52 71.869 76.616C71.885 76.712 71.893 76.8 71.893 76.88C71.893 78.816 71.461 80.184 70.597 80.984C69.749 81.8 68.405 82.208 66.565 82.208ZM60.037 70.496C59.573 70.496 59.173 70.352 58.837 70.064C58.501 69.76 58.333 69.352 58.333 68.84V67.928C58.333 66.696 58.589 65.792 59.101 65.216C59.629 64.64 60.541 64.312 61.837 64.232C61.805 64.2 61.773 64.16 61.741 64.112C61.725 64.064 61.701 64.024 61.669 63.992C61.637 63.896 61.557 63.736 61.429 63.512C61.301 63.272 61.173 63.032 61.045 62.792C60.917 62.552 60.829 62.392 60.781 62.312C60.573 61.944 60.533 61.568 60.661 61.184C60.789 60.784 61.029 60.48 61.381 60.272C61.797 60.048 62.213 59.992 62.629 60.104C63.061 60.2 63.405 60.448 63.661 60.848C63.789 61.04 63.965 61.312 64.189 61.664C64.413 62.016 64.581 62.304 64.693 62.528C65.029 63.136 65.005 63.696 64.621 64.208H67.453C67.357 64.112 67.285 64 67.237 63.872C67.205 63.776 67.109 63.584 66.949 63.296C66.789 62.992 66.629 62.696 66.469 62.408C66.325 62.104 66.229 61.912 66.181 61.832C65.989 61.464 65.957 61.088 66.085 60.704C66.229 60.304 66.485 60.008 66.853 59.816C67.253 59.608 67.661 59.56 68.077 59.672C68.509 59.768 68.853 60.024 69.109 60.44C69.189 60.568 69.301 60.768 69.445 61.04C69.605 61.312 69.765 61.584 69.925 61.856C70.085 62.128 70.205 62.336 70.285 62.48C70.621 63.12 70.573 63.696 70.141 64.208H71.533C71.709 63.888 71.917 63.496 72.157 63.032C72.397 62.568 72.629 62.112 72.853 61.664C73.077 61.216 73.245 60.88 73.357 60.656C73.597 60.144 73.957 59.848 74.437 59.768C74.917 59.672 75.357 59.712 75.757 59.888C76.173 60.096 76.461 60.416 76.621 60.848C76.797 61.264 76.757 61.696 76.501 62.144L75.373 64.208C76.893 64.224 77.965 64.52 78.589 65.096C79.213 65.656 79.525 66.6 79.525 67.928V68.84C79.525 69.352 79.357 69.76 79.021 70.064C78.685 70.352 78.285 70.496 77.821 70.496C77.357 70.496 76.957 70.36 76.621 70.088C76.285 69.816 76.117 69.424 76.117 68.912V68C76.117 67.632 76.021 67.368 75.829 67.208C75.653 67.048 75.333 66.968 74.869 66.968H63.013C62.533 66.968 62.197 67.048 62.005 67.208C61.829 67.368 61.741 67.632 61.741 68V68.912C61.741 69.424 61.573 69.816 61.237 70.088C60.901 70.36 60.501 70.496 60.037 70.496ZM83.557 81.008C83.125 81.008 82.757 80.856 82.453 80.552C82.149 80.248 81.997 79.872 81.997 79.424C81.997 78.992 82.149 78.624 82.453 78.32C82.757 78.016 83.125 77.864 83.557 77.864H91.405V74H86.893C86.445 74 86.061 73.848 85.741 73.544C85.437 73.224 85.285 72.84 85.285 72.392C85.285 71.944 85.437 71.568 85.741 71.264C86.061 70.96 86.445 70.808 86.893 70.808H91.405V67.736H86.821C86.533 68.232 86.245 68.704 85.957 69.152C85.669 69.584 85.389 69.984 85.117 70.352C84.813 70.768 84.413 71.04 83.917 71.168C83.421 71.296 82.941 71.208 82.477 70.904C82.077 70.664 81.837 70.312 81.757 69.848C81.677 69.368 81.773 68.944 82.045 68.576C82.349 68.144 82.677 67.64 83.029 67.064C83.397 66.488 83.757 65.88 84.109 65.24C84.461 64.6 84.781 63.976 85.069 63.368C85.373 62.744 85.621 62.184 85.813 61.688C86.021 61.144 86.341 60.784 86.773 60.608C87.205 60.432 87.669 60.432 88.165 60.608C88.629 60.768 88.957 61.064 89.149 61.496C89.341 61.912 89.341 62.376 89.149 62.888C89.053 63.144 88.941 63.424 88.813 63.728C88.685 64.016 88.557 64.312 88.429 64.616H91.405V61.712C91.405 61.136 91.581 60.68 91.933 60.344C92.301 60.008 92.741 59.84 93.253 59.84C93.781 59.84 94.221 60.008 94.573 60.344C94.941 60.68 95.125 61.136 95.125 61.712V64.616H101.461C101.893 64.616 102.261 64.768 102.565 65.072C102.869 65.376 103.021 65.744 103.021 66.176C103.021 66.608 102.869 66.976 102.565 67.28C102.261 67.584 101.893 67.736 101.461 67.736H95.125V70.808H99.493C99.941 70.808 100.317 70.96 100.621 71.264C100.941 71.568 101.101 71.944 101.101 72.392C101.101 72.84 100.941 73.224 100.621 73.544C100.317 73.848 99.941 74 99.493 74H95.125V77.864H102.205C102.637 77.864 103.005 78.016 103.309 78.32C103.629 78.624 103.789 78.992 103.789 79.424C103.789 79.872 103.629 80.248 103.309 80.552C103.005 80.856 102.637 81.008 102.205 81.008H83.557ZM38.2945 106.248C37.8305 106.52 37.3265 106.632 36.7825 106.584C36.2545 106.552 35.8305 106.296 35.5105 105.816C35.2065 105.4 35.1105 104.952 35.2225 104.472C35.3345 103.976 35.6145 103.592 36.0625 103.32C37.5505 102.408 38.8865 101.352 40.0705 100.152C41.2705 98.936 42.2145 97.576 42.9025 96.072C43.6065 94.568 43.9585 92.936 43.9585 91.176V86.88C43.9585 86.32 44.1345 85.872 44.4865 85.536C44.8545 85.2 45.2865 85.032 45.7825 85.032C46.2945 85.032 46.7265 85.2 47.0785 85.536C47.4305 85.872 47.6065 86.32 47.6065 86.88V90.168C47.6065 92.184 47.9825 94 48.7345 95.616C49.4865 97.232 50.4945 98.656 51.7585 99.888C53.0225 101.12 54.4065 102.176 55.9105 103.056C56.3745 103.312 56.6465 103.696 56.7265 104.208C56.8225 104.72 56.7345 105.2 56.4625 105.648C56.1745 106.112 55.7425 106.392 55.1665 106.488C54.6065 106.584 54.0865 106.48 53.6065 106.176C51.9585 105.168 50.4625 103.888 49.1185 102.336C47.7905 100.784 46.7425 99.112 45.9745 97.32C45.4945 98.456 44.8625 99.584 44.0785 100.704C43.2945 101.824 42.4065 102.864 41.4145 103.824C40.4385 104.768 39.3985 105.576 38.2945 106.248ZM62.4865 106.632C61.1745 107.128 60.2865 106.896 59.8225 105.936C59.5825 105.44 59.5665 104.976 59.7745 104.544C59.9825 104.112 60.3585 103.792 60.9025 103.584C61.5585 103.344 62.1985 103.056 62.8225 102.72C63.4625 102.384 64.0705 102.016 64.6465 101.616C64.2945 101.344 63.9425 101.088 63.5905 100.848C63.2545 100.608 62.9265 100.392 62.6065 100.2C62.2065 99.96 61.9585 99.616 61.8625 99.168C61.7825 98.72 61.8465 98.344 62.0545 98.04C62.3265 97.64 62.6785 97.384 63.1105 97.272C63.5425 97.16 63.9585 97.224 64.3585 97.464C64.8065 97.72 65.2785 98.016 65.7745 98.352C66.2865 98.688 66.7985 99.04 67.3105 99.408C67.9985 98.752 68.6145 98.048 69.1585 97.296C69.3185 97.072 69.5185 96.888 69.7585 96.744H61.5745C61.1745 96.744 60.8305 96.608 60.5425 96.336C60.2705 96.048 60.1345 95.712 60.1345 95.328C60.1345 94.928 60.2705 94.592 60.5425 94.32C60.8305 94.048 61.1745 93.912 61.5745 93.912H72.7105C73.9105 93.912 74.8385 94.04 75.4945 94.296C76.1665 94.552 76.6305 94.984 76.8865 95.592C77.1425 96.184 77.2465 97 77.1985 98.04C77.1665 98.856 77.1985 99.68 77.2945 100.512C77.3905 101.344 77.5345 102.04 77.7265 102.6C77.7905 102.792 77.8865 102.904 78.0145 102.936C78.1585 102.952 78.2945 102.832 78.4225 102.576C78.4705 102.464 78.5185 102.36 78.5665 102.264C78.6145 102.152 78.6545 102.056 78.6865 101.976C78.8785 101.56 79.1825 101.288 79.5985 101.16C80.0305 101.032 80.4465 101.064 80.8465 101.256C81.3105 101.464 81.5905 101.768 81.6865 102.168C81.7825 102.568 81.7345 102.976 81.5425 103.392C81.3825 103.744 81.1745 104.152 80.9185 104.616C80.6625 105.064 80.4145 105.448 80.1745 105.768C79.6785 106.456 79.1345 106.896 78.5425 107.088C77.9505 107.28 77.3745 107.24 76.8145 106.968C76.2545 106.696 75.7665 106.208 75.3505 105.504C75.0305 104.912 74.7585 104.208 74.5345 103.392C74.3265 102.576 74.1665 101.704 74.0545 100.776C73.9585 99.832 73.9105 98.904 73.9105 97.992C73.9105 97.512 73.8145 97.184 73.6225 97.008C73.4305 96.832 73.0945 96.744 72.6145 96.744H71.5345C71.5505 96.76 71.5665 96.768 71.5825 96.768C71.5985 96.768 71.6145 96.776 71.6305 96.792C72.0305 97.064 72.2545 97.44 72.3025 97.92C72.3665 98.384 72.2385 98.824 71.9185 99.24C71.6625 99.592 71.3585 99.96 71.0065 100.344C70.6705 100.728 70.3185 101.104 69.9505 101.472C70.3505 101.808 70.7265 102.144 71.0785 102.48C71.4465 102.8 71.7665 103.112 72.0385 103.416C72.4065 103.768 72.5745 104.192 72.5425 104.688C72.5265 105.184 72.3185 105.608 71.9185 105.96C71.5505 106.296 71.1185 106.44 70.6225 106.392C70.1265 106.344 69.7025 106.144 69.3505 105.792C68.7745 105.168 68.0865 104.504 67.2865 103.8C66.5025 104.392 65.7025 104.928 64.8865 105.408C64.0705 105.904 63.2705 106.312 62.4865 106.632ZM59.2465 93.096C58.8785 92.808 58.6705 92.432 58.6225 91.968C58.5745 91.504 58.6945 91.096 58.9825 90.744C59.3825 90.28 59.7905 89.72 60.2065 89.064C60.6385 88.408 61.0385 87.752 61.4065 87.096C61.7905 86.424 62.1105 85.832 62.3665 85.32C62.5905 84.84 62.9185 84.528 63.3505 84.384C63.7985 84.224 64.2465 84.24 64.6945 84.432C65.1105 84.608 65.3985 84.896 65.5585 85.296C65.7185 85.68 65.6865 86.104 65.4625 86.568L65.4145 86.688H78.2785C78.6465 86.688 78.9585 86.816 79.2145 87.072C79.4865 87.328 79.6225 87.64 79.6225 88.008C79.6225 88.376 79.4865 88.696 79.2145 88.968C78.9585 89.224 78.6465 89.352 78.2785 89.352H63.9745C63.6225 89.992 63.2545 90.6 62.8705 91.176C62.5025 91.752 62.1665 92.224 61.8625 92.592C61.5265 93.008 61.1185 93.288 60.6385 93.432C60.1745 93.56 59.7105 93.448 59.2465 93.096ZM65.4865 92.928C65.1025 92.928 64.7745 92.792 64.5025 92.52C64.2465 92.248 64.1185 91.928 64.1185 91.56C64.1185 91.192 64.2465 90.88 64.5025 90.624C64.7745 90.352 65.1025 90.216 65.4865 90.216H75.9265C76.2945 90.216 76.6145 90.352 76.8865 90.624C77.1585 90.88 77.2945 91.192 77.2945 91.56C77.2945 91.928 77.1585 92.248 76.8865 92.52C76.6145 92.792 76.2945 92.928 75.9265 92.928H65.4865ZM85.0225 105C83.9825 105 83.4625 104.472 83.4625 103.416V89.784C83.4625 88.728 83.9825 88.2 85.0225 88.2H85.3585C86.1585 88.2 86.7905 88.544 87.2545 89.232L94.0945 99.552V89.784C94.0945 88.728 94.6225 88.2 95.6785 88.2C96.7185 88.2 97.2385 88.728 97.2385 89.784V103.416C97.2385 104.472 96.7425 105 95.7505 105H95.4865C94.6545 105 94.0225 104.656 93.5905 103.968L86.5825 93.264V103.416C86.5825 104.472 86.0625 105 85.0225 105ZM105.255 105.264C104.183 105.264 103.215 105.016 102.351 104.52C101.503 104.024 100.831 103.32 100.335 102.408C99.8552 101.496 99.6152 100.432 99.6152 99.216C99.6152 97.984 99.8552 96.92 100.335 96.024C100.831 95.112 101.503 94.408 102.351 93.912C103.215 93.4 104.183 93.144 105.255 93.144C106.343 93.144 107.311 93.4 108.159 93.912C109.007 94.408 109.671 95.112 110.151 96.024C110.647 96.92 110.895 97.984 110.895 99.216C110.895 100.432 110.647 101.496 110.151 102.408C109.671 103.32 109.007 104.024 108.159 104.52C107.311 105.016 106.343 105.264 105.255 105.264ZM105.255 102.528C106.023 102.528 106.647 102.248 107.127 101.688C107.623 101.112 107.871 100.288 107.871 99.216C107.871 98.128 107.623 97.304 107.127 96.744C106.647 96.168 106.023 95.88 105.255 95.88C104.487 95.88 103.863 96.168 103.383 96.744C102.919 97.304 102.687 98.128 102.687 99.216C102.687 100.288 102.919 101.112 103.383 101.688C103.863 102.248 104.487 102.528 105.255 102.528ZM114.858 105.264C114.314 105.264 113.85 105.08 113.466 104.712C113.098 104.328 112.914 103.872 112.914 103.344C112.914 102.8 113.098 102.344 113.466 101.976C113.85 101.592 114.314 101.4 114.858 101.4C115.386 101.4 115.842 101.592 116.226 101.976C116.61 102.344 116.802 102.8 116.802 103.344C116.802 103.872 116.61 104.328 116.226 104.712C115.842 105.08 115.386 105.264 114.858 105.264ZM123.755 105C122.795 105 122.315 104.472 122.315 103.416V91.848L120.851 92.832C119.955 93.424 119.259 93.312 118.763 92.496C118.507 92.096 118.427 91.72 118.523 91.368C118.635 91 118.907 90.688 119.339 90.432L122.075 88.728C122.395 88.52 122.707 88.376 123.011 88.296C123.315 88.216 123.659 88.176 124.043 88.176C124.795 88.176 125.171 88.704 125.171 89.76V103.416C125.171 104.472 124.699 105 123.755 105Z" fill="black"/>
</g>
<defs>
<filter id="filter0_d_148_269" x="-0.583008" y="0" width="170" height="170" filterUnits="userSpaceOnUse" color-interpolation-filters="sRGB">
<feFlood flood-opacity="0" result="BackgroundImageFix"/>
<feColorMatrix in="SourceAlpha" type="matrix" values="0 0 0 0 0 0 0 0 0 0 0 0 0 0 0 0 0 0 127 0" result="hardAlpha"/>
<feOffset dx="3" dy="3"/>
<feGaussianBlur stdDeviation="2.5"/>
<feComposite in2="hardAlpha" operator="out"/>
<feColorMatrix type="matrix" values="0 0 0 0 0.471154 0 0 0 0 0.466624 0 0 0 0 0.466624 0 0 0 1 0"/>
<feBlend mode="normal" in2="BackgroundImageFix" result="effect1_dropShadow_148_269"/>
<feBlend mode="normal" in="SourceGraphic" in2="effect1_dropShadow_148_269" result="shape"/>
</filter>
</defs>
</svg>
