<svg width="207" height="116" viewBox="0 0 207 116" fill="none" xmlns="http://www.w3.org/2000/svg">
<g clip-path="url(#clip0_76_74)">
<path d="M103.5 116C160.661 116 207 90.0325 207 58C207 25.9675 160.661 0 103.5 0C46.3385 0 0 25.9675 0 58C0 90.0325 46.3385 116 103.5 116Z" fill="#FA7115"/>
<path d="M78.4785 27.0879C78.1328 27.082 77.8428 26.9648 77.6084 26.7363C77.374 26.502 77.2568 26.2207 77.2568 25.8926C77.2568 25.3066 77.2832 24.4277 77.3359 23.2559C77.3945 22.084 77.4238 21.2051 77.4238 20.6191C77.4238 19.9688 77.4092 18.9932 77.3799 17.6924C77.3564 16.3916 77.3447 15.416 77.3447 14.7656C77.3447 14.4434 77.5 14.124 77.8105 13.8076C78.1211 13.4854 78.4521 13.3242 78.8037 13.3242C78.9971 13.3242 79.4834 13.5059 80.2627 13.8691C81.1709 14.3027 81.71 14.5459 81.8799 14.5986C83.5967 15.1553 85.0615 16.0166 86.2744 17.1826C87.7217 18.5713 88.4453 20.1064 88.4453 21.7881C88.4453 22.8018 88.1963 23.7656 87.6982 24.6797C87.2002 25.6113 86.5176 26.3584 85.6504 26.9209C84.6777 27.5537 83.3096 27.8701 81.5459 27.8701C81.1182 27.8701 80.626 27.8086 80.0693 27.6855C79.3955 27.5332 78.8652 27.334 78.4785 27.0879ZM83.418 18.0527C82.8496 17.6953 81.6309 17.1328 79.7617 16.3652V25.0664C79.9902 25.2129 80.251 25.3242 80.5439 25.4004C80.8428 25.4707 81.1738 25.5059 81.5371 25.5059C82.8027 25.5059 83.7109 25.3301 84.2617 24.9785C84.7832 24.6445 85.1963 24.1904 85.501 23.6162C85.8115 23.042 85.9668 22.4443 85.9668 21.8232C85.9668 20.3701 85.1172 19.1133 83.418 18.0527ZM92.7906 16.4355C92.4156 16.4355 92.0904 16.3096 91.815 16.0576C91.5396 15.8057 91.402 15.498 91.402 15.1348C91.402 14.7715 91.5396 14.4639 91.815 14.2119C92.0904 13.96 92.4156 13.834 92.7906 13.834C93.1656 13.834 93.4879 13.96 93.7574 14.2119C94.0328 14.4639 94.1705 14.7715 94.1705 15.1348C94.1705 15.498 94.0328 15.8057 93.7574 16.0576C93.4879 16.3096 93.1656 16.4355 92.7906 16.4355ZM93.5377 22.8779C93.5377 23.2119 93.5465 23.748 93.5641 24.4863C93.5875 25.2246 93.5992 25.7607 93.5992 26.0947C93.5992 26.4346 93.485 26.7158 93.2564 26.9385C93.0279 27.1553 92.7379 27.2637 92.3863 27.2637C92.0348 27.2637 91.7447 27.1553 91.5162 26.9385C91.2877 26.7158 91.1734 26.4346 91.1734 26.0947C91.1734 25.7607 91.1617 25.2246 91.1383 24.4863C91.1207 23.748 91.1119 23.2119 91.1119 22.8779C91.1119 22.3564 91.1412 21.7031 91.1998 20.918C91.2584 20.1328 91.2877 19.4795 91.2877 18.958C91.2877 18.6182 91.402 18.3398 91.6305 18.123C91.859 17.9004 92.149 17.7891 92.5006 17.7891C92.8521 17.7891 93.1422 17.9004 93.3707 18.123C93.5992 18.3398 93.7135 18.6182 93.7135 18.958C93.7135 19.4795 93.6842 20.1328 93.6256 20.918C93.567 21.7031 93.5377 22.3564 93.5377 22.8779ZM103.657 27.624C102.937 27.624 102.535 27.2695 102.453 26.5605C102.371 25.957 102.289 25.3506 102.207 24.7412C102.119 24.0967 102.075 23.4902 102.075 22.9219C102.075 22.7695 102.084 22.5088 102.102 22.1396C102.125 21.7705 102.137 21.5098 102.137 21.3574C102.137 21.3164 102.143 21.2139 102.154 21.0498C102.166 20.8799 102.172 20.7422 102.172 20.6367C102.172 20.1504 102.046 19.9072 101.794 19.9072C101.255 19.9072 100.725 20.2236 100.203 20.8564C99.6877 21.4834 99.2834 22.2803 98.9904 23.2471C98.9787 23.4404 98.9523 23.6982 98.9113 24.0205C98.8762 24.2842 98.8586 24.542 98.8586 24.7939C98.8586 24.958 98.8762 25.207 98.9113 25.541C98.9523 25.8691 98.9729 26.1152 98.9729 26.2793C98.9729 26.6133 98.8557 26.8887 98.6213 27.1055C98.3928 27.3281 98.1027 27.4395 97.7512 27.4395C97.3996 27.4395 97.1096 27.3281 96.8811 27.1055C96.6525 26.8887 96.5383 26.6133 96.5383 26.2793C96.5383 26.1152 96.5207 25.8691 96.4855 25.541C96.4504 25.207 96.4328 24.958 96.4328 24.7939C96.4328 24.2314 96.4738 23.4492 96.5559 22.4473C96.6379 21.4453 96.6789 20.6631 96.6789 20.1006C96.6789 19.9248 96.6672 19.6641 96.6437 19.3184C96.6262 18.9668 96.6174 18.7061 96.6174 18.5361C96.6174 18.208 96.7346 17.9385 96.9689 17.7275C97.2092 17.5107 97.5021 17.4023 97.8479 17.4023C98.6154 17.4023 99.0256 17.8623 99.0783 18.7822L99.0871 18.8789C99.9426 18.0176 100.845 17.5869 101.794 17.5869C102.902 17.5869 103.666 18.0498 104.088 18.9756C104.369 19.5967 104.51 20.5254 104.51 21.7617V22.3857C104.504 22.6553 104.501 22.8457 104.501 22.957C104.501 23.4141 104.563 24.0029 104.686 24.7236C104.815 25.4443 104.879 26.0303 104.879 26.4814C104.879 26.8096 104.762 27.082 104.528 27.2988C104.293 27.5156 104.003 27.624 103.657 27.624ZM109.057 16.4355C108.682 16.4355 108.357 16.3096 108.082 16.0576C107.806 15.8057 107.669 15.498 107.669 15.1348C107.669 14.7715 107.806 14.4639 108.082 14.2119C108.357 13.96 108.682 13.834 109.057 13.834C109.432 13.834 109.755 13.96 110.024 14.2119C110.3 14.4639 110.437 14.7715 110.437 15.1348C110.437 15.498 110.3 15.8057 110.024 16.0576C109.755 16.3096 109.432 16.4355 109.057 16.4355ZM109.804 22.8779C109.804 23.2119 109.813 23.748 109.831 24.4863C109.854 25.2246 109.866 25.7607 109.866 26.0947C109.866 26.4346 109.752 26.7158 109.523 26.9385C109.295 27.1553 109.005 27.2637 108.653 27.2637C108.302 27.2637 108.012 27.1553 107.783 26.9385C107.554 26.7158 107.44 26.4346 107.44 26.0947C107.44 25.7607 107.429 25.2246 107.405 24.4863C107.388 23.748 107.379 23.2119 107.379 22.8779C107.379 22.3564 107.408 21.7031 107.467 20.918C107.525 20.1328 107.554 19.4795 107.554 18.958C107.554 18.6182 107.669 18.3398 107.897 18.123C108.126 17.9004 108.416 17.7891 108.767 17.7891C109.119 17.7891 109.409 17.9004 109.638 18.123C109.866 18.3398 109.98 18.6182 109.98 18.958C109.98 19.4795 109.951 20.1328 109.892 20.918C109.834 21.7031 109.804 22.3564 109.804 22.8779ZM119.924 27.624C119.204 27.624 118.802 27.2695 118.72 26.5605C118.638 25.957 118.556 25.3506 118.474 24.7412C118.386 24.0967 118.342 23.4902 118.342 22.9219C118.342 22.7695 118.351 22.5088 118.369 22.1396C118.392 21.7705 118.404 21.5098 118.404 21.3574C118.404 21.3164 118.41 21.2139 118.421 21.0498C118.433 20.8799 118.439 20.7422 118.439 20.6367C118.439 20.1504 118.313 19.9072 118.061 19.9072C117.522 19.9072 116.992 20.2236 116.47 20.8564C115.954 21.4834 115.55 22.2803 115.257 23.2471C115.246 23.4404 115.219 23.6982 115.178 24.0205C115.143 24.2842 115.125 24.542 115.125 24.7939C115.125 24.958 115.143 25.207 115.178 25.541C115.219 25.8691 115.24 26.1152 115.24 26.2793C115.24 26.6133 115.122 26.8887 114.888 27.1055C114.66 27.3281 114.37 27.4395 114.018 27.4395C113.666 27.4395 113.376 27.3281 113.148 27.1055C112.919 26.8887 112.805 26.6133 112.805 26.2793C112.805 26.1152 112.787 25.8691 112.752 25.541C112.717 25.207 112.7 24.958 112.7 24.7939C112.7 24.2314 112.741 23.4492 112.823 22.4473C112.905 21.4453 112.946 20.6631 112.946 20.1006C112.946 19.9248 112.934 19.6641 112.911 19.3184C112.893 18.9668 112.884 18.7061 112.884 18.5361C112.884 18.208 113.001 17.9385 113.236 17.7275C113.476 17.5107 113.769 17.4023 114.115 17.4023C114.882 17.4023 115.292 17.8623 115.345 18.7822L115.354 18.8789C116.209 18.0176 117.112 17.5869 118.061 17.5869C119.168 17.5869 119.933 18.0498 120.355 18.9756C120.636 19.5967 120.777 20.5254 120.777 21.7617V22.3857C120.771 22.6553 120.768 22.8457 120.768 22.957C120.768 23.4141 120.829 24.0029 120.953 24.7236C121.081 25.4443 121.146 26.0303 121.146 26.4814C121.146 26.8096 121.029 27.082 120.794 27.2988C120.56 27.5156 120.27 27.624 119.924 27.624ZM131.468 21.7617C131.222 23.1387 131.075 24.5918 131.028 26.1211C130.97 28.0137 130.653 29.3877 130.079 30.2432C129.312 31.3857 127.952 31.957 126.001 31.957C123.722 31.957 122.582 31.5059 122.582 30.6035C122.582 30.2812 122.685 30.0205 122.89 29.8213C123.095 29.6221 123.364 29.5225 123.698 29.5225C123.962 29.5225 124.34 29.5723 124.832 29.6719C125.324 29.7715 125.761 29.8213 126.142 29.8213C127.015 29.8213 127.659 29.5547 128.075 29.0215C128.474 28.5 128.708 27.6709 128.778 26.5342C128.479 26.8389 128.143 27.0674 127.768 27.2197C127.393 27.3721 126.982 27.4482 126.537 27.4482C125.371 27.4482 124.422 27.0703 123.689 26.3145C122.963 25.5527 122.6 24.5801 122.6 23.3965C122.6 21.8027 123.086 20.5137 124.059 19.5293C125.066 18.5098 126.429 18 128.146 18C128.696 18 129.171 18.0674 129.569 18.2021C129.968 18.3369 130.29 18.542 130.536 18.8174C131.28 18.9053 131.652 19.3447 131.652 20.1357C131.652 20.5283 131.591 21.0703 131.468 21.7617ZM128.058 20.0039C127.067 20.0039 126.297 20.3291 125.746 20.9795C125.254 21.5713 125.008 22.3389 125.008 23.2822C125.008 23.9795 125.14 24.5039 125.403 24.8555C125.667 25.207 126.062 25.3828 126.59 25.3828C127.07 25.3828 127.554 25.1045 128.04 24.5479C128.497 24.0205 128.758 23.499 128.822 22.9834C128.934 22.4209 129.062 21.5449 129.209 20.3555C129.01 20.2383 128.813 20.1504 128.62 20.0918C128.427 20.0332 128.239 20.0039 128.058 20.0039Z" fill="#1E1E1E"/>
<path d="M58.6768 67.8447C56.9092 67.9229 53.0371 68.5137 47.0605 69.6172C46.9238 70.3984 46.6846 71.5117 46.3428 72.957C46.001 74.5098 45.7715 75.6279 45.6543 76.3115C45.5762 76.8584 45.3076 77.3125 44.8486 77.6738C44.3994 78.0449 43.9062 78.2305 43.3691 78.2305C42.8711 78.2305 42.4658 78.0693 42.1533 77.7471C41.8408 77.4346 41.6846 77.0488 41.6846 76.5898C41.6846 76.1504 42.0068 74.5781 42.6514 71.873C43.2373 69.5293 44.2188 64.29 45.5957 56.1553C45.6738 55.6084 45.9326 55.1543 46.3721 54.793C46.8115 54.4219 47.3145 54.2363 47.8809 54.2363C48.3691 54.2363 48.7744 54.3877 49.0967 54.6904C49.4189 54.9932 49.5801 55.3789 49.5801 55.8477C49.5801 56.1992 49.3604 57.4199 48.9209 59.5098L48.5693 61.4434C48.3643 62.625 48.1836 63.5625 48.0273 64.2559C47.8809 64.793 47.7686 65.291 47.6904 65.75L53.5205 64.666C55.5127 64.2949 57.4316 64.0752 59.2773 64.0068C59.4336 63.3428 59.7852 61.585 60.332 58.7334C60.4688 57.8643 60.8838 56.917 61.5771 55.8916C62.2705 54.8662 62.9248 54.3535 63.54 54.3535C64.0283 54.3535 64.4434 54.5098 64.7852 54.8223C65.1367 55.1348 65.3125 55.5107 65.3125 55.9502C65.3125 56.2041 65.2588 56.4531 65.1514 56.6973C64.8682 57.3516 64.6338 58.1377 64.4482 59.0557C64.3994 59.2705 64.3359 59.5195 64.2578 59.8027C64.1113 60.4961 64.0283 60.9209 64.0088 61.0771C63.9209 61.624 63.6523 63.001 63.2031 65.208C62.666 67.7373 62.3438 69.5586 62.2363 70.6719L61.7822 75.3301C61.7236 76.0527 61.4648 76.6143 61.0059 77.0146C60.5469 77.4248 60.0098 77.6299 59.3945 77.6299C58.8672 77.6299 58.4277 77.4736 58.0762 77.1611C57.7344 76.8486 57.5635 76.4775 57.5635 76.0479L58.2227 70.6719C58.2812 70.1348 58.3447 69.6953 58.4131 69.3535L58.5449 68.5479C58.5742 68.3037 58.6182 68.0693 58.6768 67.8447ZM73.3896 58.1914C72.999 60.5547 72.6523 62.4834 72.3496 63.9775C73.5605 63.8799 75.499 63.6992 78.165 63.4355C80.0498 63.2598 81.251 63.1719 81.7686 63.1719C82.3154 63.1719 82.75 63.3232 83.0723 63.626C83.3945 63.9287 83.5557 64.3291 83.5557 64.8271C83.5557 65.3936 83.3701 65.9014 82.999 66.3506C82.6377 66.7998 82.0518 67.0586 81.2412 67.127C80.4307 67.1953 79.1758 67.3174 77.4766 67.4932C75.7773 67.6592 73.7656 67.8301 71.4414 68.0059C70.875 70.7695 70.5918 72.6396 70.5918 73.6162C70.5918 73.958 70.6309 74.1875 70.709 74.3047C70.7871 74.4219 71.3828 74.4805 72.4961 74.4805H73.6387L77.9893 74.3926C78.1162 74.3926 78.5703 74.3438 79.3516 74.2461C80.0156 74.1582 80.5527 74.2656 80.9629 74.5684C81.373 74.8711 81.5781 75.3008 81.5781 75.8574C81.5781 76.9023 81.1582 77.5908 80.3184 77.9229C79.4883 78.2646 77.1885 78.4355 73.4189 78.4355C70.2549 78.4355 68.3115 78.0693 67.5889 77.3369C66.8662 76.6143 66.5049 75.4766 66.5049 73.9238C66.5049 72.2637 66.9932 69.3291 67.9697 65.1201C68.8486 61.4385 69.2881 58.9775 69.2881 57.7373C69.3369 56.6924 69.4199 55.9502 69.5371 55.5107C69.6641 55.0615 69.918 54.6904 70.2988 54.3975C70.6895 54.1045 71.1924 53.958 71.8076 53.958C72.2471 53.958 72.6182 54.0898 72.9209 54.3535C75.2061 53.7676 77.2959 53.4746 79.1904 53.4746C80.6943 53.4746 82.208 53.6357 83.7314 53.958C85.2646 54.2705 86.0312 54.8809 86.0312 55.7891C86.0312 56.4434 85.792 57.0146 85.3135 57.5029C84.8447 57.9814 84.3027 58.2207 83.6875 58.2207C83.4727 58.2207 83.2627 58.1914 83.0576 58.1328C81.5342 57.7129 80.0254 57.5029 78.5312 57.5029C76.959 57.5029 75.2451 57.7324 73.3896 58.1914ZM91.0029 70.7891L90.4756 75.3008C90.3877 75.9844 90.1094 76.5264 89.6406 76.9268C89.1816 77.3174 88.6543 77.5127 88.0586 77.5127C87.5312 77.5127 87.1016 77.3516 86.7695 77.0293C86.4473 76.707 86.2861 76.3213 86.2861 75.8721C86.2861 75.6182 86.4863 74.4023 86.8867 72.2246L89.3477 57.1074C89.4551 56.4141 89.7676 55.8086 90.2852 55.291C90.8125 54.7637 91.5107 54.5 92.3799 54.5C93.5322 54.5 94.6211 54.5732 95.6465 54.7197C96.9941 54.915 98.0049 55.1543 98.6787 55.4375C99.3623 55.7207 100.202 56.2188 101.198 56.9316C102.194 57.6445 102.976 58.4746 103.542 59.4219C104.118 60.3594 104.406 61.3799 104.406 62.4834C104.406 65.6182 102.316 67.9375 98.1367 69.4414C99.3086 70.1055 100.515 71.0039 101.755 72.1367C103.005 73.2598 103.63 74.1582 103.63 74.832C103.63 75.4277 103.386 75.9697 102.897 76.458C102.409 76.9365 101.853 77.1758 101.228 77.1758C100.7 77.1758 100.241 76.9658 99.8506 76.5459C97.3018 73.7627 94.3525 71.8438 91.0029 70.7891ZM93.0391 58.6455L91.8086 66.4092H92.4385C95.0557 66.4092 97.0088 66.0479 98.2979 65.3252C99.5967 64.6025 100.246 63.8799 100.246 63.1572C100.246 62.1611 99.6455 61.1992 98.4443 60.2715C97.2432 59.334 95.9248 58.8213 94.4893 58.7334C94.4795 58.7334 93.9961 58.7041 93.0391 58.6455ZM107.371 70.0713C107.371 68.0205 108.021 65.75 109.319 63.2598C110.628 60.7598 112.391 58.7236 114.607 57.1514C116.824 55.5791 119.163 54.793 121.624 54.793C127.571 54.793 130.545 57.1807 130.545 61.9561C130.545 65.8037 129.183 69.4219 126.458 72.8105C123.733 76.1992 120.472 77.8936 116.673 77.8936C113.948 77.8936 111.717 77.1611 109.979 75.6963C108.24 74.2314 107.371 72.3564 107.371 70.0713ZM111.59 69.3535C111.59 70.6816 112.127 71.7754 113.201 72.6348C114.275 73.4844 115.643 73.9092 117.303 73.9092C119.695 73.9092 121.795 72.6641 123.602 70.1738C125.418 67.6836 126.326 65.1299 126.326 62.5127C126.326 61.165 125.926 60.208 125.125 59.6416C124.324 59.0752 122.947 58.792 120.994 58.792C119.412 58.792 117.889 59.3584 116.424 60.4912C114.959 61.624 113.787 63.0742 112.908 64.8418C112.029 66.5996 111.59 68.1035 111.59 69.3535ZM135.165 82.0391C134.687 82.0391 134.291 81.8926 133.979 81.5996C133.676 81.3066 133.524 80.9697 133.524 80.5889C133.524 80.3545 133.979 79.5195 134.887 78.084C135.795 76.6582 136.439 75.7793 136.82 75.4473C137.201 75.1055 137.636 74.9346 138.124 74.9346C138.603 74.9346 138.998 75.0762 139.311 75.3594C139.633 75.6426 139.794 75.9746 139.794 76.3555C139.794 76.668 139.057 77.9131 137.582 80.0908C137.328 80.4717 137.113 80.8037 136.938 81.0869C136.508 81.7217 135.917 82.0391 135.165 82.0391ZM146.655 73.6016C146.655 72.8105 146.899 72.166 147.388 71.668C147.876 71.1602 148.467 70.9062 149.16 70.9062C150.01 70.9062 150.591 71.3555 150.903 72.2539C151.255 73.4551 152.412 74.0557 154.375 74.0557C155.967 74.0557 157.686 73.6895 159.531 72.957C161.387 72.2148 162.314 71.2041 162.314 69.9248C162.314 69.0557 161.968 68.46 161.274 68.1377C160.591 67.8057 159.111 67.6201 156.836 67.5811C155.068 67.542 153.535 67.1855 152.236 66.5117C150.947 65.8281 150.303 64.915 150.303 63.7725C150.303 61.8584 151.46 60.0078 153.774 58.2207C156.089 56.4238 158.569 55.5254 161.216 55.5254C162.222 55.5254 163.438 55.7695 164.863 56.2578C166.289 56.7363 167.002 57.293 167.002 57.9277C167.002 58.377 166.772 58.8506 166.313 59.3486C165.854 59.8369 165.298 60.0811 164.644 60.0811C164.146 60.0811 163.467 59.9785 162.607 59.7734C161.807 59.5781 161.133 59.4805 160.586 59.4805C159.307 59.4805 158.018 59.8027 156.719 60.4473C155.43 61.082 154.785 61.7803 154.785 62.542C154.785 63.1865 155.42 63.6064 156.689 63.8018L160.088 63.9629C161.426 64.0215 162.603 64.2754 163.618 64.7246C164.634 65.1738 165.396 65.7988 165.903 66.5996C166.411 67.3906 166.665 68.333 166.665 69.4268C166.665 72.1514 165.361 74.2461 162.754 75.7109C160.146 77.166 157.104 77.8936 153.628 77.8936C151.401 77.8936 149.683 77.4736 148.472 76.6338C147.261 75.7842 146.655 74.7734 146.655 73.6016Z" fill="#1E1E1E"/>
<path d="M45.4453 43.2031C45.1953 42.3906 44.5573 40.7266 43.5312 38.2109C43.2552 37.6849 43.1172 37.3125 43.1172 37.0938C43.1172 36.8073 43.2526 36.5365 43.5234 36.2812C43.7943 36.0208 44.0885 35.8906 44.4062 35.8906C44.6406 35.8906 44.8385 35.9557 45 36.0859C45.1615 36.2109 45.4427 36.7161 45.8438 37.6016C46.2448 38.487 46.6406 39.526 47.0312 40.7188C48.4583 38.3594 49.3568 36.9635 49.7266 36.5312C50.1016 36.0938 50.4688 35.875 50.8281 35.875C51.099 35.875 51.3281 35.9609 51.5156 36.1328C51.7031 36.3047 51.7969 36.5078 51.7969 36.7422C51.7969 36.9349 51.7266 37.1484 51.5859 37.3828C51.4505 37.612 50.2578 39.4766 48.0078 42.9766C46.9401 44.5911 46.1458 45.9141 45.625 46.9453C45.2604 47.6693 44.9922 48.1146 44.8203 48.2812C44.6484 48.4479 44.4036 48.5312 44.0859 48.5312C43.8047 48.5312 43.5703 48.4453 43.3828 48.2734C43.2005 48.1016 43.1094 47.8984 43.1094 47.6641C43.1094 47.2109 43.888 45.724 45.4453 43.2031ZM52.3859 41.25C52.3859 39.9479 52.8573 38.7318 53.8 37.6016C54.7479 36.4714 55.9641 35.9062 57.4484 35.9062C58.3026 35.9062 58.9719 36.1979 59.4563 36.7812C59.9458 37.3594 60.1906 38.125 60.1906 39.0781C60.1906 40.4479 59.7427 41.6875 58.8469 42.7969C57.9563 43.9062 56.8443 44.4609 55.5109 44.4609C54.5839 44.4609 53.8313 44.1589 53.2531 43.5547C52.675 42.9453 52.3859 42.1771 52.3859 41.25ZM54.5734 40.9375C54.5734 41.3802 54.6802 41.7344 54.8938 42C55.1125 42.2656 55.425 42.3984 55.8313 42.3984C56.5083 42.3984 57.0474 42.1146 57.4484 41.5469C57.8495 40.974 58.05 40.2396 58.05 39.3438C58.05 38.4271 57.6984 37.9688 56.9953 37.9688C56.3078 37.9688 55.7323 38.3021 55.2688 38.9688C54.8052 39.6302 54.5734 40.2865 54.5734 40.9375ZM69.2016 39.4844L68.6703 43.125C68.6443 43.3125 68.6234 43.4766 68.6078 43.6172C68.5661 43.9036 68.4229 44.1432 68.1781 44.3359C67.9385 44.5286 67.6677 44.625 67.3656 44.625C66.9281 44.625 66.6391 44.4271 66.4984 44.0312C65.8057 44.276 65.1026 44.3984 64.3891 44.3984C63.7328 44.3984 63.2016 44.2839 62.7953 44.0547C62.3943 43.8255 62.1313 43.5599 62.0063 43.2578C61.8865 42.9557 61.8266 42.5365 61.8266 42C61.8266 40.5469 61.9594 39.25 62.225 38.1094C62.4958 36.9635 62.7406 36.2708 62.9594 36.0312C63.1833 35.7865 63.4828 35.6641 63.8578 35.6641C64.1391 35.6641 64.3682 35.7448 64.5453 35.9062C64.7224 36.0625 64.8109 36.2656 64.8109 36.5156C64.8109 36.7031 64.712 37.1172 64.5141 37.7578C64.1495 38.9245 63.9672 40.1823 63.9672 41.5312C63.9672 41.7656 63.9776 41.974 63.9984 42.1562C64.1964 42.276 64.4333 42.3359 64.7094 42.3359C65.3083 42.3359 65.9516 42.2552 66.6391 42.0938L67.225 38.5312C67.3656 37.6875 67.4932 37.0807 67.6078 36.7109C67.7276 36.3411 67.8865 36.0833 68.0844 35.9375C68.2875 35.7865 68.5427 35.7109 68.85 35.7109C69.1313 35.7109 69.3578 35.7891 69.5297 35.9453C69.7068 36.1016 69.7953 36.3021 69.7953 36.5469C69.7953 36.6354 69.6964 37.1641 69.4984 38.1328L69.2016 39.5V39.4844ZM78.2203 38.3672C78.1786 38.6641 78.051 38.9401 77.8375 39.1953C77.6292 39.4453 77.3297 39.5703 76.9391 39.5703C76.387 39.5703 76.1109 39.3203 76.1109 38.8203C76.1109 38.737 76.1187 38.6458 76.1344 38.5469L76.2047 37.7578C75.012 37.9401 74.0771 38.5443 73.4 39.5703L72.7906 43.4844C72.7437 43.776 72.6057 44.0234 72.3766 44.2266C72.1474 44.4297 71.8714 44.5312 71.5484 44.5312C71.2568 44.5312 71.0354 44.4323 70.8844 44.2344C70.7333 44.0417 70.6812 43.7917 70.7281 43.4844L71.5328 38.3672L71.7281 37.25C71.7854 36.8854 71.8531 36.625 71.9312 36.4688C72.0146 36.3125 72.1448 36.1797 72.3219 36.0703C72.5042 35.9609 72.7151 35.9062 72.9547 35.9062C73.538 35.9062 73.8375 36.2031 73.8531 36.7969C74.8844 36.1042 75.9599 35.7578 77.0797 35.7578C77.9339 35.7578 78.3609 36.2292 78.3609 37.1719C78.3609 37.375 78.3401 37.599 78.2984 37.8438L78.2203 38.3672Z" fill="#1E1E1E"/>
<path d="M117.892 89.0205C117.758 89.001 117.625 88.9912 117.491 88.9912C116.677 88.9912 116.271 89.1035 116.271 89.3281C116.271 89.4583 116.48 89.6227 116.9 89.8213C117.597 90.1729 118.059 90.4658 118.287 90.7002C118.518 90.9313 118.634 91.2031 118.634 91.5156C118.634 91.9974 118.399 92.4141 117.931 92.7656C117.465 93.1139 116.832 93.2881 116.031 93.2881C115.569 93.2881 115.159 93.21 114.801 93.0537C114.443 92.8975 114.264 92.6842 114.264 92.4141C114.264 92.0039 114.487 91.7988 114.933 91.7988C115.082 91.7988 115.289 91.846 115.553 91.9404C115.842 92.0348 116.056 92.082 116.192 92.082C116.896 92.082 117.247 91.9372 117.247 91.6475C117.247 91.4912 117.049 91.3187 116.651 91.1299C115.971 90.8109 115.515 90.5472 115.284 90.3389C115.056 90.1305 114.942 89.8604 114.942 89.5283C114.942 89.0465 115.151 88.6364 115.567 88.2979C115.984 87.9593 116.826 87.79 118.092 87.79C118.723 87.79 119.039 87.987 119.039 88.3809C119.039 88.5859 118.987 88.8122 118.883 89.0596C118.779 89.307 118.622 89.4307 118.414 89.4307C118.085 89.4307 117.911 89.2939 117.892 89.0205ZM121.233 86.5156C121.233 86.291 121.326 86.0973 121.512 85.9346C121.697 85.7718 121.901 85.6904 122.122 85.6904C122.308 85.6904 122.465 85.7507 122.596 85.8711C122.726 85.9883 122.791 86.1315 122.791 86.3008C122.791 86.5189 122.698 86.7126 122.513 86.8818C122.33 87.0479 122.124 87.1309 121.893 87.1309C121.704 87.1309 121.546 87.0706 121.419 86.9502C121.295 86.8298 121.233 86.6849 121.233 86.5156ZM120.726 93.1514C120.547 93.1514 120.403 93.1009 120.296 93C120.188 92.8958 120.135 92.764 120.135 92.6045L120.271 91.6084C120.359 90.9378 120.477 90.2786 120.623 89.6309C120.737 89.1523 120.81 88.7861 120.843 88.5322C120.869 88.3532 120.957 88.2002 121.106 88.0732C121.259 87.943 121.432 87.8779 121.624 87.8779C121.793 87.8779 121.93 87.9284 122.034 88.0293C122.142 88.1302 122.195 88.262 122.195 88.4248C122.195 88.555 122.124 88.931 121.98 89.5527C121.837 90.1745 121.728 90.7751 121.653 91.3545C121.582 91.9339 121.526 92.3213 121.487 92.5166C121.451 92.7119 121.36 92.8665 121.214 92.9805C121.071 93.0944 120.908 93.1514 120.726 93.1514ZM125.181 88.4883C125.731 88.0098 126.268 87.7705 126.792 87.7705C127.612 87.7705 128.022 88.2425 128.022 89.1865C128.022 89.4437 127.995 89.7448 127.939 90.0898L127.881 90.4414C127.799 90.9297 127.759 91.3626 127.759 91.7402C127.759 92.1829 127.747 92.4954 127.725 92.6777C127.702 92.8568 127.617 93.013 127.471 93.1465C127.327 93.2832 127.155 93.3516 126.953 93.3516C126.566 93.3516 126.372 93.1644 126.372 92.79C126.372 91.9665 126.396 91.3626 126.445 90.9785C126.494 90.5911 126.576 90.1615 126.689 89.6895C126.735 89.5072 126.758 89.3786 126.758 89.3037C126.758 89.141 126.702 89.0596 126.592 89.0596C126.283 89.0596 125.954 89.2435 125.605 89.6113C125.257 89.9759 124.993 90.3503 124.814 90.7344C124.639 91.1152 124.531 91.6003 124.492 92.1895C124.479 92.4727 124.453 92.6696 124.414 92.7803C124.375 92.8877 124.289 92.9902 124.155 93.0879C124.025 93.1888 123.867 93.2393 123.682 93.2393C123.512 93.2393 123.372 93.1904 123.262 93.0928C123.154 92.9951 123.101 92.8698 123.101 92.7168L123.14 92.1895C123.166 91.8314 123.27 91.2617 123.452 90.4805C123.628 89.7578 123.729 89.2581 123.755 88.9814C123.781 88.6755 123.807 88.4411 123.833 88.2783C123.862 88.1156 123.95 87.974 124.097 87.8535C124.246 87.7298 124.421 87.668 124.619 87.668C125.042 87.668 125.229 87.9219 125.181 88.4297V88.4883ZM128.737 91.3984C128.737 90.653 129.068 89.8685 129.729 89.0449C130.389 88.2214 131.075 87.8096 131.784 87.8096C132.146 87.8096 132.543 87.9089 132.976 88.1074C133.412 88.3027 133.63 88.529 133.63 88.7861C133.63 88.9587 133.557 89.1182 133.41 89.2646C133.267 89.4079 133.098 89.4795 132.902 89.4795C132.756 89.4795 132.6 89.4062 132.434 89.2598C132.261 89.1068 131.978 89.0303 131.584 89.0303C131.324 89.0303 130.998 89.2988 130.607 89.8359C130.22 90.373 130.026 90.8206 130.026 91.1787C130.026 91.4456 130.126 91.6637 130.324 91.833C130.523 91.999 130.803 92.082 131.164 92.082C131.385 92.082 131.665 91.9974 132.004 91.8281C132.355 91.6621 132.572 91.5791 132.653 91.5791C132.813 91.5791 132.943 91.6344 133.044 91.7451C133.148 91.8525 133.2 91.9779 133.2 92.1211C133.2 92.4076 132.912 92.6777 132.336 92.9316C131.76 93.1823 131.306 93.3076 130.974 93.3076C130.3 93.3076 129.758 93.1318 129.348 92.7803C128.941 92.4287 128.737 91.9681 128.737 91.3984ZM135.761 91.5303C136.041 91.8688 136.457 92.0381 137.011 92.0381C137.44 92.0381 137.823 91.9486 138.158 91.7695C138.458 91.61 138.689 91.5303 138.852 91.5303C139.138 91.5303 139.281 91.654 139.281 91.9014C139.281 92.2822 139.024 92.598 138.51 92.8486C137.995 93.096 137.432 93.2197 136.82 93.2197C136.068 93.2197 135.479 93.0521 135.053 92.7168C134.63 92.3783 134.418 91.9242 134.418 91.3545C134.418 90.557 134.701 89.7822 135.268 89.0303C135.837 88.2783 136.591 87.9023 137.528 87.9023C138.144 87.9023 138.622 88.0049 138.964 88.21C139.309 88.4118 139.481 88.6999 139.481 89.0742C139.481 89.429 139.345 89.7285 139.071 89.9727C138.801 90.2135 138.284 90.4886 137.519 90.7979L135.761 91.5303ZM135.849 90.29L137.03 89.8213C137.46 89.6357 137.839 89.4486 138.168 89.2598C137.976 89.1393 137.704 89.0791 137.353 89.0791C136.75 89.0791 136.249 89.4827 135.849 90.29ZM142.286 91.7402C143.012 91.6458 143.782 91.5986 144.596 91.5986C144.882 91.5986 145.157 91.6637 145.421 91.7939C145.688 91.9242 145.821 92.0885 145.821 92.2871C145.821 92.4564 145.742 92.6191 145.582 92.7754C145.426 92.9316 145.248 93.0098 145.05 93.0098C144.939 93.0098 144.815 92.9967 144.679 92.9707C144.542 92.9447 144.422 92.9316 144.317 92.9316L142.887 92.9219C142.76 92.9219 142.566 92.9382 142.306 92.9707C142.107 92.9967 141.918 93.0098 141.739 93.0098C141.407 93.0098 141.179 92.9609 141.056 92.8633C140.932 92.7656 140.87 92.6094 140.87 92.3945C140.87 91.9453 140.96 91.5107 141.139 91.0908C141.321 90.6709 141.572 90.3242 141.891 90.0508C142.21 89.7741 142.729 89.4307 143.448 89.0205C144.246 88.5648 144.726 88.2132 144.889 87.9658C145.051 87.7184 145.133 87.5068 145.133 87.3311C145.133 87.1846 145.058 87.0527 144.908 86.9355C144.762 86.8184 144.565 86.7598 144.317 86.7598C143.976 86.7598 143.585 86.9128 143.146 87.2188C142.713 87.5247 142.426 87.6777 142.286 87.6777C142.104 87.6777 141.954 87.6354 141.837 87.5508C141.723 87.4661 141.666 87.3555 141.666 87.2188C141.666 87.056 141.721 86.9046 141.832 86.7646C141.943 86.6214 142.283 86.3757 142.853 86.0273C143.425 85.6758 143.98 85.5 144.518 85.5C145.123 85.5 145.615 85.6416 145.992 85.9248C146.373 86.2048 146.563 86.5596 146.563 86.9893C146.563 87.4645 146.409 87.9512 146.1 88.4492C145.794 88.9473 145.214 89.4209 144.361 89.8701C143.688 90.2282 143.201 90.5391 142.901 90.8027C142.602 91.0664 142.397 91.3789 142.286 91.7402ZM147.547 90.4121C147.547 88.9766 147.898 87.7852 148.602 86.8379C149.308 85.8874 150.167 85.4121 151.18 85.4121C151.889 85.4121 152.441 85.6497 152.835 86.125C153.229 86.597 153.426 87.2383 153.426 88.0488C153.426 88.6673 153.289 89.4355 153.016 90.3535C152.742 91.2682 152.34 91.9697 151.81 92.458C151.282 92.9463 150.61 93.1904 149.793 93.1904C148.296 93.1904 147.547 92.2643 147.547 90.4121ZM148.875 90.373C148.875 91.4115 149.248 91.9307 149.993 91.9307C150.722 91.9307 151.246 91.4798 151.565 90.5781C151.884 89.6764 152.044 88.8398 152.044 88.0684C152.044 87.5801 151.958 87.2269 151.785 87.0088C151.613 86.7907 151.344 86.6816 150.979 86.6816C150.527 86.6816 150.127 86.8818 149.778 87.2822C149.433 87.6794 149.196 88.1807 149.065 88.7861C148.938 89.3883 148.875 89.9173 148.875 90.373ZM154.81 93C154.243 93 153.96 92.8389 153.96 92.5166C153.96 92.012 154.341 91.7598 155.103 91.7598H155.205C155.241 91.7598 155.28 91.763 155.322 91.7695L156.011 87.4385C155.682 87.6338 155.482 87.7314 155.41 87.7314C155.244 87.7314 155.104 87.6761 154.99 87.5654C154.88 87.4548 154.824 87.3229 154.824 87.1699C154.824 86.9648 154.963 86.7516 155.239 86.5303L155.859 86.1299L156.533 85.6514C156.781 85.4756 157.03 85.3877 157.28 85.3877C157.528 85.3877 157.651 85.5179 157.651 85.7783C157.651 85.889 157.544 86.4831 157.329 87.5605C157.144 88.5078 156.968 89.5072 156.802 90.5586L156.611 91.75H156.934C157.103 91.75 157.241 91.7988 157.349 91.8965C157.456 91.9941 157.51 92.1178 157.51 92.2676C157.51 92.4629 157.437 92.6338 157.29 92.7803C157.147 92.9268 156.965 93 156.743 93H154.81ZM162.097 91.7402C162.823 91.6458 163.592 91.5986 164.406 91.5986C164.693 91.5986 164.968 91.6637 165.231 91.7939C165.498 91.9242 165.632 92.0885 165.632 92.2871C165.632 92.4564 165.552 92.6191 165.393 92.7754C165.236 92.9316 165.059 93.0098 164.86 93.0098C164.75 93.0098 164.626 92.9967 164.489 92.9707C164.353 92.9447 164.232 92.9316 164.128 92.9316L162.697 92.9219C162.57 92.9219 162.377 92.9382 162.116 92.9707C161.918 92.9967 161.729 93.0098 161.55 93.0098C161.218 93.0098 160.99 92.9609 160.866 92.8633C160.743 92.7656 160.681 92.6094 160.681 92.3945C160.681 91.9453 160.77 91.5107 160.949 91.0908C161.132 90.6709 161.382 90.3242 161.701 90.0508C162.02 89.7741 162.539 89.4307 163.259 89.0205C164.056 88.5648 164.536 88.2132 164.699 87.9658C164.862 87.7184 164.943 87.5068 164.943 87.3311C164.943 87.1846 164.868 87.0527 164.719 86.9355C164.572 86.8184 164.375 86.7598 164.128 86.7598C163.786 86.7598 163.396 86.9128 162.956 87.2188C162.523 87.5247 162.237 87.6777 162.097 87.6777C161.914 87.6777 161.765 87.6354 161.647 87.5508C161.534 87.4661 161.477 87.3555 161.477 87.2188C161.477 87.056 161.532 86.9046 161.643 86.7646C161.753 86.6214 162.093 86.3757 162.663 86.0273C163.236 85.6758 163.791 85.5 164.328 85.5C164.934 85.5 165.425 85.6416 165.803 85.9248C166.184 86.2048 166.374 86.5596 166.374 86.9893C166.374 87.4645 166.219 87.9512 165.91 88.4492C165.604 88.9473 165.025 89.4209 164.172 89.8701C163.498 90.2282 163.011 90.5391 162.712 90.8027C162.412 91.0664 162.207 91.3789 162.097 91.7402Z" fill="#1E1E1E"/>
</g>
<defs>
<clipPath id="clip0_76_74">
<rect width="207" height="116" fill="white"/>
</clipPath>
</defs>
</svg>
